# xmcd
# 
# Track frame offsets:
#     150
#     10962
#     27485
#     51598
#     64271
#     79448
#     100464
#     113022
#     135703
#     152747
#     175785
#     178616
#     196191
#     212074
# 
# Disc length: 3088
# 
# Revision: 0
# Processed by: cddbd v1.5.2PL0 Copyright (c) Steve Scherf et al.
# Submitted via: BonkEnc v1.0.15
# 
DISCID=c70c0e0e
DTITLE=S_R_VAUGHAN - TEXAS FLOOD
DYEAR=0
DGENRE=Blues
TTITLE0=Love Struck Baby
TTITLE1=Pride And Joy
TTITLE2=Texas Flood
TTITLE3=Tell Me
TTITLE4=Testify
TTITLE5=Rude Mood
TTITLE6=Mary Had A Little Lamb
TTITLE7=Dirty Pool
TTITLE8=I'm Cryin'
TTITLE9=Lenny
TTITLE10=SRV Speaks
TTITLE11=Testify (Live)
TTITLE12=Mary Had A Little Lamb (Live)
TTITLE13=Wham! (Live)
EXTD=
EXTT0=
EXTT1=
EXTT2=
EXTT3=
EXTT4=
EXTT5=
EXTT6=
EXTT7=
EXTT8=
EXTT9=
EXTT10=
EXTT11=
EXTT12=
EXTT13=
PLAYORDER=
